<?xml version="1.0" encoding="utf-8"?>
<!-- Generator: Adobe Illustrator 16.0.0, SVG Export Plug-In . SVG Version: 6.00 Build 0)  -->
<!DOCTYPE svg PUBLIC "-//W3C//DTD SVG 1.1//EN" "http://www.w3.org/Graphics/SVG/1.1/DTD/svg11.dtd">
<svg version="1.1" xmlns="http://www.w3.org/2000/svg" xmlns:xlink="http://www.w3.org/1999/xlink" x="0px" y="0px" width="1200px"
	 height="240px" viewBox="0 0 1200 240" enable-background="new 0 0 1200 240" xml:space="preserve">
<g id="Layer_2">
	<rect fill="#40BBEC" width="1200" height="240"/>
</g>
<g id="Layer_1">
	<g>
		<path fill="#FFFFFF" d="M511.748,119.567c-1.888-2.28-4.142-4.206-6.762-5.779c-2.621-1.572-5.504-2.595-8.649-3.066
			c1.73-0.995,3.473-2.188,5.229-3.577c1.755-1.389,3.328-2.948,4.717-4.679c1.389-1.729,2.517-3.643,3.382-5.74
			c0.864-2.095,1.297-4.375,1.297-6.84c0-5.397-1.927-9.749-5.779-13.052c-3.853-3.302-9.316-5.818-16.393-7.548
			c-1.207-0.314-2.583-0.551-4.129-0.708c-1.547-0.157-3.145-0.287-4.796-0.393c-1.651-0.104-3.263-0.17-4.835-0.197
			c-1.573-0.025-2.962-0.039-4.167-0.039c-3.932,0-7.876,0.328-11.834,0.982c-3.958,0.656-7.783,1.587-11.479,2.792
			c-3.694,1.206-7.142,2.661-10.339,4.363c-3.197,1.704-5.988,3.63-8.373,5.779c-2.386,2.149-4.26,4.481-5.621,6.997
			c-1.364,2.517-2.045,5.19-2.045,8.021c0,1.364,0.287,2.817,0.864,4.364c0.576,1.546,1.376,2.961,2.398,4.245
			c1.022,1.285,2.253,2.358,3.695,3.224c1.441,0.865,3.053,1.298,4.835,1.298c1.625,0,2.988-0.551,4.089-1.651
			c1.102-1.102,1.703-2.438,1.809-4.011c0.052-0.733-0.04-1.453-0.275-2.161s-0.59-1.35-1.062-1.927s-1.049-1.034-1.729-1.376
			c-0.682-0.341-1.442-0.512-2.28-0.512c-0.786,0-1.533,0.158-2.241,0.473c-0.707,0.314-1.35,0.721-1.926,1.218
			c-0.578,0.5-1.049,1.089-1.415,1.77c-0.367,0.682-0.577,1.416-0.629,2.201c-1.102-1.205-1.875-2.488-2.319-3.853
			c-0.446-1.362-0.669-2.831-0.669-4.403c0-3.091,1.311-6.105,3.932-9.041c2.62-2.935,6.119-5.556,10.497-7.862
			c4.375-2.307,9.421-4.168,15.135-5.583c5.713-1.415,11.662-2.123,17.848-2.123c0.576,0,1.18,0.014,1.809,0.039
			c0.629,0.027,1.258,0.066,1.887,0.118h0.314c2.883,0.21,5.386,0.865,7.51,1.966c2.122,1.101,3.864,2.568,5.229,4.403
			c1.362,1.835,2.384,3.997,3.065,6.487c0.681,2.489,1.022,5.176,1.022,8.058c0,3.095-0.604,5.768-1.809,8.021
			c-1.206,2.254-2.66,4.167-4.363,5.739c-1.704,1.572-3.474,2.858-5.308,3.853c-1.835,0.996-3.381,1.757-4.639,2.28
			c-1.049,0.472-1.9,0.84-2.555,1.101c-0.657,0.263-1.01,0.683-1.063,1.258c0,1.05,1.074,1.572,3.224,1.572
			c14.887,0,22.33,6.317,22.33,18.95c0,3.773-0.538,7.311-1.611,10.613c-1.075,3.303-2.739,6.174-4.993,8.609
			c-2.254,2.439-5.138,4.352-8.648,5.74c-3.513,1.389-7.706,2.084-12.58,2.084c-2.359,0-4.482-0.248-6.369-0.746
			c-1.887-0.5-3.538-1.035-4.953-1.613c1.781-3.197,3.132-6.342,4.049-9.436c0.917-3.092,1.585-6.211,2.005-9.355
			c0.419-3.145,0.72-6.342,0.904-9.592c0.183-3.25,0.405-6.631,0.669-10.143c0.208-2.621,0.433-5.701,0.668-9.239
			s0.563-7.167,0.982-10.89c0.419-3.721,0.931-7.324,1.533-10.812c0.603-3.484,1.376-6.459,2.319-8.924
			c0.157-0.523,0.341-0.917,0.551-1.179c0.209-0.262,0.459-0.537,0.747-0.826c0.287-0.288,0.563-0.629,0.825-1.021
			c0.262-0.393,0.523-0.983,0.786-1.77c0-0.576-0.105-0.995-0.314-1.258c-0.21-0.262-0.892-0.394-2.044-0.394
			c-1.258,0-2.857,0.25-4.796,0.748c-1.939,0.498-3.841,1.14-5.7,1.926c-1.861,0.786-3.539,1.651-5.032,2.595
			c-1.494,0.943-2.426,1.835-2.791,2.673c-1.258,1.835-2.255,4.43-2.988,7.784c-0.734,3.355-1.324,7.129-1.77,11.322
			s-0.813,8.648-1.1,13.366c-0.289,4.717-0.617,9.384-0.983,13.995c-0.421,5.453-1.114,10.314-2.084,14.586
			c-0.971,4.271-1.979,8.164-3.026,11.674c-3.723,0-6.868,0.33-9.436,0.984c-2.569,0.656-4.639,1.482-6.211,2.477
			c-1.572,0.996-2.713,2.07-3.421,3.223c-0.707,1.154-1.061,2.229-1.061,3.225c0,1.258,0.34,2.307,1.022,3.145
			c0.68,0.84,1.584,1.508,2.712,2.006c1.126,0.496,2.438,0.865,3.931,1.1c1.494,0.236,3.053,0.355,4.679,0.355
			c2.83,0,5.372-0.158,7.627-0.473c2.253-0.314,4.297-0.838,6.133-1.572c1.834-0.734,3.472-1.719,4.914-2.949
			c1.44-1.232,2.791-2.766,4.049-4.6c1.991,0.891,4.075,1.506,6.251,1.848c2.174,0.34,4.311,0.512,6.408,0.512
			c3.563,0,7.206-0.184,10.929-0.551c3.721-0.367,7.352-0.996,10.89-1.887c3.537-0.891,6.853-2.07,9.945-3.539
			c3.093-1.465,5.806-3.275,8.139-5.424c2.331-2.148,4.179-4.705,5.543-7.666c1.362-2.961,2.044-6.355,2.044-10.182
			c0-2.883-0.525-5.701-1.572-8.453C515.102,124.363,513.635,121.848,511.748,119.567z M437.368,166.074
			c-1.572,1.939-3.302,2.908-5.188,2.908c-0.735,0-1.494-0.066-2.28-0.195c-0.786-0.131-1.508-0.342-2.162-0.629
			c-0.656-0.289-1.207-0.682-1.651-1.18c-0.445-0.498-0.668-1.113-0.668-1.848c0-0.578,0.274-1.246,0.825-2.006
			s1.454-1.467,2.713-2.123c1.258-0.654,2.921-1.23,4.992-1.729c2.07-0.498,4.626-0.773,7.666-0.826
			C440.356,161.592,438.941,164.135,437.368,166.074z"/>
		<path fill="#FFFFFF" d="M778.199,109.818c-0.418-0.445-1.127-0.669-2.121-0.669c-4.09,0.104-7.877,0.184-11.361,0.236
			c-3.488,0.053-6.959,0.078-10.42,0.078c0.264-1.048,0.537-2.044,0.826-2.987c0.287-0.943,0.59-1.888,0.904-2.831
			c0.209-0.577,0.551-1.585,1.021-3.026c0.473-1.442,1.049-2.896,1.73-4.364s1.402-2.765,2.164-3.893
			c0.756-1.126,1.504-1.69,2.238-1.69c0.578,0,1.023-0.13,1.338-0.393c0.314-0.262,0.473-0.603,0.473-1.022
			c0-0.366-0.158-0.708-0.473-1.022s-0.838-0.471-1.572-0.471c-1.051,0-2.137,0.105-3.262,0.314
			c-1.131,0.21-2.217,0.524-3.266,0.943c-2.357,0.996-4.48,2.215-6.367,3.655c-1.887,1.442-3.566,3.041-5.031,4.796
			c-1.469,1.758-2.729,3.645-3.775,5.662c-1.049,2.019-1.967,4.127-2.752,6.329c-1.521,0-2.844,0-3.971,0s-2.24,0-3.342,0
			c-1.1,0-2.305-0.013-3.617-0.039c-1.309-0.026-2.855-0.065-4.637-0.118c-0.316,0-0.553,0.157-0.709,0.472
			s-0.236,0.656-0.236,1.022c0,0.419,0.08,0.773,0.236,1.061c0.156,0.289,0.393,0.433,0.709,0.433
			c1.678,0.054,3.131,0.093,4.363,0.119c1.23,0.026,2.373,0.038,3.42,0.038s2.096,0,3.145,0s2.252,0,3.617,0
			c-1.207,3.984-2.033,8.059-2.477,12.227c-0.447,4.168-0.801,8.137-1.061,11.912c-0.105,1.207-0.197,2.451-0.277,3.734
			c-0.078,1.285-0.117,2.609-0.117,3.971c0,1.018,0.037,2.041,0.107,3.064c-1.119,1.459-2.18,2.674-3.172,3.619
			c-1.363,1.205-2.844,2.24-4.443,3.105c-1.598,0.865-3.264,1.299-4.992,1.299c-1.678,0-3.066-0.342-4.168-1.023
			s-1.967-1.598-2.596-2.752c-0.629-1.152-1.086-2.449-1.373-3.893c-0.291-1.441-0.486-2.947-0.592-4.521
			c3.25-1.1,5.988-2.527,8.217-4.283s4.035-3.578,5.426-5.467c1.389-1.887,2.398-3.721,3.027-5.502s0.943-3.225,0.943-4.326v-0.863
			c0-1.049-0.172-2.071-0.512-3.067c-0.34-0.994-0.84-1.873-1.494-2.634c-0.656-0.759-1.492-1.375-2.516-1.848
			c-1.021-0.471-2.215-0.708-3.576-0.708c-1.574,0-3.027,0.119-4.363,0.354c-1.338,0.235-2.531,0.512-3.58,0.826
			s-1.951,0.629-2.711,0.943s-1.352,0.576-1.77,0.785c-2.359,1.05-4.441,2.465-6.252,4.246c-1.807,1.783-3.328,3.828-4.559,6.133
			c-1.232,2.309-2.162,4.85-2.791,7.627c-0.629,2.779-0.943,5.688-0.943,8.729c0,2.139,0.191,4.162,0.557,6.082
			c-0.602,0.625-1.207,1.213-1.814,1.74c-1.414,1.232-2.699,1.848-3.852,1.848c-1.363,0-2.518-0.379-3.459-1.139
			c-0.945-0.762-1.73-1.732-2.359-2.91c-0.629-1.18-1.115-2.516-1.455-4.01c-0.342-1.494-0.59-2.975-0.746-4.443
			c2.516-2.986,4.846-6.119,6.998-9.395c2.146-3.275,4.139-6.748,5.975-10.418c0.943-1.834,1.898-3.787,2.869-5.858
			c0.969-2.07,1.861-4.192,2.674-6.368c0.813-2.175,1.482-4.337,2.004-6.487c0.525-2.148,0.787-4.192,0.787-6.132
			c0-1.153-0.119-2.346-0.354-3.578c-0.236-1.231-0.656-2.358-1.258-3.381c-0.604-1.022-1.43-1.849-2.477-2.478
			c-1.051-0.629-2.387-0.943-4.01-0.943c-1.992,0-3.945,0.407-5.859,1.22s-3.551,1.717-4.912,2.712l-1.102,0.786
			c-3.984,2.83-7.182,6.344-9.594,10.536c-1.428,2.482-2.637,5.073-3.678,7.748c-2.154,0.047-4.225,0.086-6.188,0.115
			c-3.486,0.053-6.957,0.078-10.418,0.078c0.262-1.048,0.539-2.044,0.826-2.987s0.59-1.888,0.904-2.831
			c0.209-0.577,0.551-1.585,1.021-3.026c0.473-1.442,1.049-2.896,1.73-4.364s1.402-2.765,2.162-3.893
			c0.76-1.126,1.506-1.69,2.242-1.69c0.574,0,1.021-0.13,1.336-0.393c0.314-0.262,0.473-0.603,0.473-1.022
			c0-0.366-0.158-0.708-0.473-1.022s-0.84-0.471-1.572-0.471c-1.051,0-2.137,0.105-3.264,0.314c-1.127,0.21-2.215,0.524-3.262,0.943
			c-2.359,0.996-4.482,2.215-6.369,3.655c-1.887,1.442-3.566,3.041-5.033,4.796c-1.467,1.758-2.725,3.645-3.773,5.662
			c-1.049,2.019-1.965,4.127-2.752,6.329c-1.52,0-2.844,0-3.971,0s-2.24,0-3.342,0c-1.1,0-2.307-0.013-3.615-0.039
			c-1.311-0.026-2.857-0.065-4.639-0.118c-0.316,0-0.551,0.157-0.709,0.472c-0.156,0.314-0.236,0.656-0.236,1.022
			c0,0.419,0.08,0.773,0.236,1.061c0.158,0.289,0.393,0.433,0.709,0.433c1.678,0.054,3.131,0.093,4.361,0.119
			c1.232,0.026,2.373,0.038,3.422,0.038c1.047,0,2.096,0,3.145,0s2.254,0,3.617,0c-1.207,3.984-2.033,8.059-2.477,12.227
			c-0.445,4.168-0.801,8.137-1.063,11.912c-0.105,1.207-0.195,2.451-0.275,3.734c-0.078,1.285-0.117,2.609-0.117,3.971
			c0,0.893,0.033,1.789,0.088,2.688c-1.18,1.635-2.283,2.969-3.311,3.996c-1.049,1.049-2.043,1.887-2.986,2.516
			c-0.945,0.629-1.811,0.943-2.596,0.943c-1.051,0-1.861-0.275-2.438-0.826c-0.578-0.549-0.996-1.297-1.258-2.24
			c-0.264-0.943-0.42-2.004-0.473-3.184c-0.051-1.18-0.078-2.398-0.078-3.656c0-1.783,0.119-3.461,0.355-5.033
			c0.234-1.572,0.51-3.039,0.824-4.402s0.615-2.635,0.904-3.813c0.287-1.18,0.482-2.293,0.59-3.342c0.051-0.996,0-1.967-0.158-2.91
			c-0.156-0.943-0.578-1.781-1.258-2.516c-0.682-0.734-1.689-1.336-3.025-1.81c-1.338-0.471-3.105-0.758-5.309-0.864
			c-2.412,0-4.756-0.354-7.037-1.062c-2.279-0.707-4.312-1.69-6.093-2.948c0.419-2.148,0.681-3.825,0.786-5.031
			c0.104-1.206,0.157-2.254,0.157-3.146c0-1.678-0.053-3.368-0.157-5.071c-0.105-1.702-0.354-3.249-0.747-4.639
			c-0.394-1.389-0.982-2.528-1.769-3.421c-0.786-0.89-1.888-1.337-3.303-1.337c-0.892,0-1.611,0.275-2.162,0.826
			c-0.551,0.55-0.996,1.206-1.337,1.966c-0.342,0.76-0.577,1.547-0.707,2.358c-0.132,0.813-0.196,1.508-0.196,2.084
			c0,3.46,0.55,6.604,1.651,9.435c1.1,2.831,2.724,5.217,4.874,7.155c-0.264,1.153-0.604,2.568-1.022,4.246
			c-0.42,1.678-0.892,3.408-1.415,5.189c-0.524,1.781-1.101,3.525-1.73,5.229c-0.629,1.705-1.284,3.158-1.965,4.363
			c-0.301,0.553-0.551,0.986-0.755,1.322c-0.102,0.135-0.196,0.252-0.306,0.408c-0.813,1.152-1.743,2.543-2.791,4.166
			c-1.049,1.627-2.176,3.277-3.381,4.953c-1.206,1.68-2.386,3.041-3.538,4.09c-1.05,0.996-2.176,1.926-3.381,2.791
			c-1.207,0.865-2.201,1.297-2.988,1.297c-1.049,0-1.861-0.262-2.437-0.787c-0.578-0.521-0.997-1.244-1.258-2.16
			c-0.264-0.918-0.421-1.953-0.473-3.107c-0.053-1.15-0.078-2.357-0.078-3.615c0-3.041,0.196-5.938,0.589-8.688
			c0.394-2.754,0.892-5.242,1.494-7.471c0.602-2.229,1.23-4.129,1.888-5.699c0.654-1.574,1.244-2.7,1.769-3.382
			c0.314-0.315,0.603-0.708,0.865-1.18c0.262-0.472,0.393-1.074,0.393-1.809c0-0.419-0.131-0.733-0.393-0.943
			c-0.263-0.209-0.761-0.314-1.494-0.314c-0.996,0-2.188,0.21-3.577,0.629c-1.39,0.42-2.791,0.97-4.207,1.651
			c-1.415,0.682-2.791,1.441-4.128,2.279c-1.337,0.84-2.477,1.652-3.42,2.439c-0.577-2.36-1.639-4.063-3.184-5.112
			c-1.548-1.048-3.578-1.572-6.094-1.572c-3.46,0-6.815,0.629-10.064,1.887c-3.25,1.258-6.133,3.106-8.648,5.542
			c-2.517,2.439-4.521,5.426-6.015,8.965c-1.494,3.537-2.241,7.588-2.241,12.148c0,2.516,0.223,4.861,0.668,7.037
			c0.444,2.176,1.206,4.063,2.28,5.66c1.073,1.6,2.503,2.857,4.285,3.773c1.781,0.918,3.983,1.377,6.604,1.377
			c3.669,0,6.866-0.42,9.592-1.26c2.726-0.836,5.137-1.965,7.234-3.379c0.629,1.363,1.546,2.438,2.751,3.223
			c1.206,0.785,2.753,1.18,4.64,1.18c1.834,0,3.445-0.078,4.836-0.236c1.388-0.158,2.646-0.418,3.773-0.787
			c1.127-0.365,2.201-0.811,3.224-1.336c1.022-0.523,2.057-1.152,3.105-1.887c1.678-1.152,3.303-2.477,4.875-3.971
			c1.572-1.492,3.053-3.105,4.442-4.834c1.389-1.732,2.686-3.525,3.893-5.387c1.204-1.861,2.331-3.734,3.38-5.621
			c0.048-0.145,0.082-0.266,0.108-0.377c0.5-0.764,1.002-1.68,1.502-2.77c0.603-1.309,1.192-2.764,1.77-4.363
			c0.577-1.598,1.088-3.172,1.533-4.717s0.838-2.975,1.18-4.285c0.34-1.311,0.59-2.333,0.747-3.067
			c1.467,1.049,3.092,1.861,4.875,2.438c1.258,0.42,2.252,0.93,2.986,1.533c0.734,0.602,0.891,1.271,0.473,2.004
			c-1.992,3.461-3.434,7.326-4.324,11.598c-0.893,4.273-1.338,8.846-1.338,13.721c0,1.678,0.184,3.355,0.551,5.031
			c0.367,1.68,0.943,3.184,1.73,4.521c0.785,1.336,1.795,2.412,3.027,3.223c1.23,0.813,2.686,1.219,4.363,1.219
			c1.416,0,2.738-0.156,3.971-0.471c1.23-0.314,2.41-0.734,3.537-1.258s2.215-1.127,3.264-1.809s2.096-1.389,3.146-2.123
			c1.676-1.152,3.273-2.49,4.795-4.01c1.105-1.105,2.145-2.295,3.154-3.525c0.314,2.154,0.9,4.088,1.758,5.807
			c0.865,1.729,2.084,3.145,3.656,4.244s3.617,1.652,6.133,1.652c3.775,0,7.232-0.773,10.379-2.32
			c3.145-1.545,6.002-3.512,8.57-5.896c0.707-0.658,1.389-1.342,2.055-2.039c0.344,1.441,0.816,2.795,1.441,4.043
			c0.918,1.836,2.176,3.33,3.775,4.482c1.598,1.154,3.68,1.73,6.25,1.73c3.617,0,6.918-0.748,9.908-2.242
			c2.986-1.494,5.711-3.406,8.176-5.738c0.414-0.393,0.811-0.805,1.211-1.213c0.502,1.438,1.152,2.738,1.973,3.885
			c1.178,1.65,2.713,2.961,4.6,3.932s4.217,1.455,6.996,1.455c5.084,0,9.225-0.721,12.422-2.162s5.951-3.316,8.258-5.623
			c1.256-1.176,2.451-2.422,3.592-3.734c0.326,2.047,0.891,3.898,1.713,5.545c0.865,1.729,2.084,3.145,3.656,4.244
			c1.574,1.1,3.617,1.652,6.133,1.652c3.773,0,7.234-0.773,10.379-2.32c3.145-1.545,6.002-3.512,8.57-5.896
			c2.566-2.385,4.848-5.033,6.84-7.941c1.992-2.91,3.748-5.727,5.27-8.453v-0.785c-0.105-0.314-0.367-0.563-0.787-0.748
			c-0.42-0.184-0.787-0.275-1.102-0.275l-0.785,0.787c-0.893,1.887-2.096,3.932-3.619,6.133c-1.518,2.201-3.131,4.246-4.834,6.133
			s-3.34,3.447-4.914,4.678c-1.572,1.232-2.83,1.848-3.773,1.848c-1.416,0-2.555-0.404-3.42-1.219
			c-0.865-0.813-1.523-1.873-1.967-3.184c-0.445-1.311-0.746-2.764-0.904-4.365c-0.158-1.598-0.234-3.184-0.234-4.756
			c0-5.449,0.285-10.68,0.863-15.686c0.576-5.006,1.389-9.684,2.439-14.035c3.666,0,7.313-0.038,10.928-0.117
			c3.617-0.079,7.469-0.197,11.559-0.354h1.258c0.994-0.261,1.492-0.681,1.492-1.258
			C778.828,110.564,778.619,110.264,778.199,109.818z M553.024,136.826c-0.682,4.035-1.021,8.439-1.021,13.209
			c0,1.887,0.157,3.564,0.472,5.031c-1.887,1.574-3.774,2.357-5.661,2.357c-1.678,0-2.977-0.432-3.893-1.297
			c-0.917-0.863-1.586-2.004-2.005-3.418c-0.42-1.416-0.668-2.988-0.747-4.719c-0.078-1.73-0.117-3.459-0.117-5.189
			c0-1.258,0.052-2.502,0.157-3.734c0.104-1.23,0.209-2.424,0.314-3.578c0.157-1.938,0.563-3.893,1.219-5.857
			c0.654-1.965,1.479-3.746,2.477-5.348c0.995-1.598,2.122-2.895,3.381-3.891c1.258-0.995,2.567-1.494,3.932-1.494
			c1.258,0,2.358,0.669,3.302,2.005c0.943,1.339,1.415,2.923,1.415,4.757h0.079C554.807,129.068,553.705,132.791,553.024,136.826z
			 M597.407,110.211c-0.078,1.285-0.249,2.529-0.511,3.734c-1.364-1.362-2.425-3.014-3.184-4.953
			c-0.762-1.939-1.141-4.246-1.141-6.919c0-0.366,0-0.748,0-1.14c0-0.394,0.025-0.799,0.079-1.22c0-0.208,0.025-0.537,0.078-0.983
			c0.052-0.443,0.144-0.864,0.275-1.258c0.13-0.393,0.287-0.747,0.471-1.062s0.406-0.471,0.669-0.471
			c0.576,0,1.074,0.274,1.494,0.825c0.419,0.551,0.772,1.297,1.062,2.24c0.287,0.944,0.497,2.045,0.629,3.303
			c0.13,1.259,0.196,2.595,0.196,4.01C597.525,107.629,597.486,108.927,597.407,110.211z M659.48,153.848
			c-1.572,1.232-2.83,1.848-3.775,1.848c-1.414,0-2.555-0.404-3.418-1.219c-0.865-0.813-1.521-1.873-1.967-3.184
			s-0.746-2.764-0.904-4.365c-0.158-1.598-0.236-3.184-0.236-4.756c0-5.449,0.289-10.68,0.865-15.686s1.391-9.684,2.438-14.035
			c3.668,0,7.313-0.038,10.93-0.117c1.721-0.038,3.498-0.085,5.326-0.141c-0.297,0.904-0.59,1.81-0.846,2.735
			c-1.313,4.745-2.189,9.593-2.635,14.546s-0.668,9.605-0.668,13.955c0,1.732,0.094,3.465,0.279,5.195
			c-0.158,0.182-0.314,0.367-0.475,0.545C662.689,151.057,661.053,152.617,659.48,153.848z M681.613,135.922
			c0.023-0.445,0.063-0.877,0.117-1.297c0.418-6.344,1.152-12.424,2.201-18.243c1.047-5.817,2.359-10.954,3.93-15.41
			c0.316-0.891,0.695-1.99,1.141-3.302c0.445-1.309,0.984-2.582,1.613-3.813c0.629-1.23,1.387-2.293,2.279-3.185
			c0.891-0.89,1.939-1.336,3.145-1.336c0.105,0,0.236,0.014,0.393,0.039c0.158,0.027,0.289,0.039,0.395,0.039
			c1.465,0.21,2.424,0.918,2.869,2.123c0.445,1.207,0.668,2.568,0.668,4.089c0,2.201-0.236,4.43-0.707,6.683
			c-0.473,2.255-1.102,4.47-1.887,6.645c-0.787,2.176-1.689,4.324-2.713,6.446c-1.021,2.123-2.057,4.155-3.105,6.095
			c-1.467,2.727-3.066,5.412-4.797,8.059c-1.729,2.646-3.592,5.229-5.582,7.744C681.572,136.826,681.586,136.367,681.613,135.922z
			 M712.236,138.477c0-0.996,0.025-2.201,0.076-3.617c0.053-1.416,0.197-2.908,0.434-4.48c0.234-1.572,0.563-3.146,0.982-4.719
			s0.994-2.975,1.73-4.205c0.732-1.232,1.65-2.242,2.75-3.028c1.102-0.786,2.412-1.179,3.932-1.179c0.629,0,1.26,0.156,1.889,0.471
			s1.18,0.722,1.65,1.22s0.852,1.088,1.139,1.768c0.289,0.683,0.434,1.364,0.434,2.046c0,2.045-0.445,4.023-1.336,5.936
			c-0.893,1.914-2.059,3.656-3.5,5.229s-3.053,2.922-4.836,4.051c-1.781,1.127-3.563,1.926-5.344,2.396V138.477z"/>
	</g>
</g>
</svg>
